<?xml version="1.0" standalone="no"?><!DOCTYPE svg PUBLIC "-//W3C//DTD SVG 1.1//EN" "http://www.w3.org/Graphics/SVG/1.1/DTD/svg11.dtd"><svg t="1513349794606" class="icon" style="" viewBox="0 0 1024 1024" version="1.1" xmlns="http://www.w3.org/2000/svg" p-id="1234" xmlns:xlink="http://www.w3.org/1999/xlink" width="200" height="200"><defs><style type="text/css"></style></defs><path d="M892.717949 506.748718c-7.876923 28.882051-18.379487 55.138462-36.758975 84.020513-89.271795 152.287179-31.507692 244.184615-31.507692 244.184615l-131.282051 133.907692c-10.502564 10.502564-23.630769 7.876923-28.882052-5.251282 0 0-18.379487-60.389744-63.015384-60.389743-42.010256 0-110.276923 52.512821-196.923077 73.517949-257.312821 68.266667-210.051282-228.430769-210.051282-228.43077 0-13.128205-7.876923-28.882051-23.630769-34.133333l-105.025641-31.507692c-13.128205-5.251282-21.005128-18.379487-13.128205-31.507693 0 0 28.882051-55.138462 68.266666-131.282051 68.266667 0 160.164103 2.625641 280.94359 21.005128 183.794872 34.133333 364.964103 0 490.994872-34.133333z" fill="#E5F5FF" p-id="1235"></path><path d="M333.45641 1013.497436c-44.635897 0-81.394872-13.128205-107.651282-39.384615-81.394872-73.517949-57.764103-223.179487-57.764102-228.43077l-5.251282-5.251282-105.025641-31.507692c-13.128205-5.251282-26.25641-13.128205-31.507693-26.25641-5.251282-13.128205-5.251282-28.882051 2.625641-42.010257 0 0 60.389744-115.528205 118.153846-231.05641 2.625641-189.046154 99.774359-388.594872 370.215385-388.594872 162.789744 0 262.564103 65.641026 315.076923 120.779487 57.764103 60.389744 76.14359 120.779487 76.14359 123.405129 2.625641 5.251282 63.015385 178.54359-34.133333 338.707692-78.769231 133.907692-34.133333 212.676923-31.507693 217.928205 7.876923 13.128205 2.625641 28.882051-7.876923 36.758974-13.128205 7.876923-28.882051 5.251282-36.758974-7.876923-2.625641-5.251282-68.266667-107.651282 28.882051-273.066666 81.394872-139.158974 28.882051-294.071795 28.882051-296.697436-2.625641-10.502564-65.641026-204.8-341.333333-204.8-294.071795 0-317.702564 262.564103-317.702564 343.958974v5.251282l-2.625641 5.251282c-52.512821 105.025641-107.651282 207.425641-118.153846 231.05641l99.774359 28.882052c26.25641 7.876923 44.635897 34.133333 42.010256 60.389743 0 2.625641-18.379487 131.282051 39.384616 183.794872 28.882051 26.25641 76.14359 31.507692 136.533333 15.753846 39.384615-10.502564 76.14359-28.882051 107.651282-42.010256 36.758974-18.379487 68.266667-31.507692 97.148718-31.507692 49.887179 0 78.769231 49.887179 89.271795 78.76923 5.251282 13.128205-2.625641 28.882051-18.379487 34.133334-13.128205 5.251282-28.882051-2.625641-34.133334-18.379488-2.625641-10.502564-18.379487-42.010256-36.758974-42.010256-15.753846 0-44.635897 13.128205-73.517949 26.25641-34.133333 15.753846-73.517949 34.133333-118.153846 47.261539-23.630769 7.876923-47.261538 10.502564-73.517949 10.502564z" fill="#1DA1F2" p-id="1236"></path><path d="M635.405128 183.794872c-5.251282 0-10.502564-2.625641-15.753846-5.251282-21.005128-15.753846-60.389744-18.379487-73.517949-15.753846-13.128205 0-26.25641-10.502564-28.882051-23.63077 0-15.753846 10.502564-26.25641 23.630769-28.882051 7.876923 0 70.892308-5.251282 110.276923 26.25641 10.502564 7.876923 13.128205 26.25641 5.251282 36.758975-5.251282 5.251282-13.128205 10.502564-21.005128 10.502564zM695.794872 341.333333h-26.25641l-157.538462 420.102564h52.512821l39.384615-105.025641h183.794872l39.384615 105.025641h52.512821l-157.538462-420.102564h-26.25641z m-81.394872 273.066667l81.394872-217.928205 89.271795 217.928205h-170.666667zM958.358974 341.333333h52.512821v420.102564h-52.512821z" fill="#FFCC00" p-id="1237"></path></svg>